{
	"asset":{
		"generator":"Khronos glTF Blender I/O v4.4.55",
		"version":"2.0"
	},
	"scene":0,
	"scenes":[
		{
			"name":"Scene",
			"nodes":[
				7
			]
		}
	],
	"nodes":[
		{
			"mesh":0,
			"name":"dial1"
		},
		{
			"mesh":1,
			"name":"dial2"
		},
		{
			"name":"Empty"
		},
		{
			"name":"Empty.001"
		},
		{
			"mesh":2,
			"name":"lens"
		},
		{
			"mesh":3,
			"name":"lever"
		},
		{
			"mesh":4,
			"name":"shutter"
		},
		{
			"children":[
				0,
				1,
				2,
				3,
				4,
				5,
				6
			],
			"mesh":5,
			"name":"camera"
		}
	],
	"materials":[
		{
			"doubleSided":true,
			"name":"Silver",
			"pbrMetallicRoughness":{
				"baseColorFactor":[
					0.800000011920929,
					0.800000011920929,
					0.800000011920929,
					1
				],
				"metallicFactor":0,
				"roughnessFactor":0.5
			}
		},
		{
			"doubleSided":true,
			"name":"Black",
			"pbrMetallicRoughness":{
				"baseColorFactor":[
					0,
					0,
					0,
					1
				],
				"metallicFactor":0,
				"roughnessFactor":0.5
			}
		}
	],
	"meshes":[
		{
			"name":"Cylinder.003",
			"primitives":[
				{
					"attributes":{
						"POSITION":0,
						"NORMAL":1,
						"TEXCOORD_0":2
					},
					"indices":3,
					"material":0
				}
			]
		},
		{
			"name":"Cylinder",
			"primitives":[
				{
					"attributes":{
						"POSITION":4,
						"NORMAL":5,
						"TEXCOORD_0":6
					},
					"indices":7,
					"material":0
				},
				{
					"attributes":{
						"POSITION":8,
						"NORMAL":9,
						"TEXCOORD_0":10
					},
					"indices":11,
					"material":1
				}
			]
		},
		{
			"name":"Cylinder.004",
			"primitives":[
				{
					"attributes":{
						"POSITION":12,
						"NORMAL":13,
						"TEXCOORD_0":14
					},
					"indices":15,
					"material":1
				}
			]
		},
		{
			"name":"Cylinder.002",
			"primitives":[
				{
					"attributes":{
						"POSITION":16,
						"NORMAL":17,
						"TEXCOORD_0":18
					},
					"indices":19,
					"material":0
				},
				{
					"attributes":{
						"POSITION":20,
						"NORMAL":21,
						"TEXCOORD_0":22
					},
					"indices":23,
					"material":1
				}
			]
		},
		{
			"name":"Cylinder.001",
			"primitives":[
				{
					"attributes":{
						"POSITION":24,
						"NORMAL":25,
						"TEXCOORD_0":26
					},
					"indices":27,
					"material":0
				}
			]
		},
		{
			"name":"Cube.003",
			"primitives":[
				{
					"attributes":{
						"POSITION":28,
						"NORMAL":29,
						"TEXCOORD_0":30
					},
					"indices":31,
					"material":0
				},
				{
					"attributes":{
						"POSITION":32,
						"NORMAL":33,
						"TEXCOORD_0":34
					},
					"indices":35,
					"material":1
				}
			]
		}
	],
	"accessors":[
		{
			"bufferView":0,
			"componentType":5126,
			"count":148,
			"max":[
				-0.18398752808570862,
				0.11411181092262268,
				0.029431425034999847
			],
			"min":[
				-0.2702205181121826,
				0.04045462980866432,
				-0.05680155009031296
			],
			"type":"VEC3"
		},
		{
			"bufferView":1,
			"componentType":5126,
			"count":148,
			"type":"VEC3"
		},
		{
			"bufferView":2,
			"componentType":5126,
			"count":148,
			"type":"VEC2"
		},
		{
			"bufferView":3,
			"componentType":5123,
			"count":276,
			"type":"SCALAR"
		},
		{
			"bufferView":4,
			"componentType":5126,
			"count":166,
			"max":[
				0.17688685655593872,
				0.20988473296165466,
				0.05029582604765892
			],
			"min":[
				0.0925106555223465,
				0.057725705206394196,
				-0.0340803824365139
			],
			"type":"VEC3"
		},
		{
			"bufferView":5,
			"componentType":5126,
			"count":166,
			"type":"VEC3"
		},
		{
			"bufferView":6,
			"componentType":5126,
			"count":166,
			"type":"VEC2"
		},
		{
			"bufferView":7,
			"componentType":5123,
			"count":324,
			"type":"SCALAR"
		},
		{
			"bufferView":8,
			"componentType":5126,
			"count":32,
			"max":[
				0.17688685655593872,
				0.18720334768295288,
				0.05029582604765892
			],
			"min":[
				0.0925106555223465,
				0.13239003717899323,
				-0.0340803824365139
			],
			"type":"VEC3"
		},
		{
			"bufferView":9,
			"componentType":5126,
			"count":32,
			"type":"VEC3"
		},
		{
			"bufferView":10,
			"componentType":5126,
			"count":32,
			"type":"VEC2"
		},
		{
			"bufferView":11,
			"componentType":5123,
			"count":48,
			"type":"SCALAR"
		},
		{
			"bufferView":12,
			"componentType":5126,
			"count":198,
			"max":[
				0.09897686541080475,
				0.04042652249336243,
				-0.0707312524318695
			],
			"min":[
				-0.15769676864147186,
				-0.216247096657753,
				-0.3377538323402405
			],
			"type":"VEC3"
		},
		{
			"bufferView":13,
			"componentType":5126,
			"count":198,
			"type":"VEC3"
		},
		{
			"bufferView":14,
			"componentType":5126,
			"count":198,
			"type":"VEC2"
		},
		{
			"bufferView":15,
			"componentType":5123,
			"count":372,
			"type":"SCALAR"
		},
		{
			"bufferView":16,
			"componentType":5126,
			"count":76,
			"max":[
				0.3253060579299927,
				0.10455382615327835,
				0.08382958173751831
			],
			"min":[
				0.23896098136901855,
				0.07060068845748901,
				-0.03801969438791275
			],
			"type":"VEC3"
		},
		{
			"bufferView":17,
			"componentType":5126,
			"count":76,
			"type":"VEC3"
		},
		{
			"bufferView":18,
			"componentType":5126,
			"count":76,
			"type":"VEC2"
		},
		{
			"bufferView":19,
			"componentType":5123,
			"count":126,
			"type":"SCALAR"
		},
		{
			"bufferView":20,
			"componentType":5126,
			"count":44,
			"max":[
				0.2471397966146469,
				0.10175984352827072,
				0.09428557753562927
			],
			"min":[
				0.11235655844211578,
				0.0825730711221695,
				0.05252758413553238
			],
			"type":"VEC3"
		},
		{
			"bufferView":21,
			"componentType":5126,
			"count":44,
			"type":"VEC3"
		},
		{
			"bufferView":22,
			"componentType":5126,
			"count":44,
			"type":"VEC2"
		},
		{
			"bufferView":23,
			"componentType":5123,
			"count":78,
			"type":"SCALAR"
		},
		{
			"bufferView":24,
			"componentType":5126,
			"count":198,
			"max":[
				0.23457075655460358,
				0.11821796000003815,
				-0.023527495563030243
			],
			"min":[
				0.17771948873996735,
				0.062296390533447266,
				-0.08037876337766647
			],
			"type":"VEC3"
		},
		{
			"bufferView":25,
			"componentType":5126,
			"count":198,
			"type":"VEC3"
		},
		{
			"bufferView":26,
			"componentType":5126,
			"count":198,
			"type":"VEC2"
		},
		{
			"bufferView":27,
			"componentType":5123,
			"count":372,
			"type":"SCALAR"
		},
		{
			"bufferView":28,
			"componentType":5126,
			"count":87,
			"max":[
				0.34677955508232117,
				0.08053760975599289,
				0.06919937580823898
			],
			"min":[
				-0.29898586869239807,
				-0.23929981887340546,
				-0.08995972573757172
			],
			"type":"VEC3"
		},
		{
			"bufferView":29,
			"componentType":5126,
			"count":87,
			"type":"VEC3"
		},
		{
			"bufferView":30,
			"componentType":5126,
			"count":87,
			"type":"VEC2"
		},
		{
			"bufferView":31,
			"componentType":5123,
			"count":138,
			"type":"SCALAR"
		},
		{
			"bufferView":32,
			"componentType":5126,
			"count":208,
			"max":[
				0.357907235622406,
				0.22925497591495514,
				0.0888039842247963
			],
			"min":[
				-0.3101135194301605,
				-0.23058976233005524,
				-0.18592952191829681
			],
			"type":"VEC3"
		},
		{
			"bufferView":33,
			"componentType":5126,
			"count":208,
			"type":"VEC3"
		},
		{
			"bufferView":34,
			"componentType":5126,
			"count":208,
			"type":"VEC2"
		},
		{
			"bufferView":35,
			"componentType":5123,
			"count":360,
			"type":"SCALAR"
		}
	],
	"bufferViews":[
		{
			"buffer":0,
			"byteLength":1776,
			"byteOffset":0,
			"target":34962
		},
		{
			"buffer":0,
			"byteLength":1776,
			"byteOffset":1776,
			"target":34962
		},
		{
			"buffer":0,
			"byteLength":1184,
			"byteOffset":3552,
			"target":34962
		},
		{
			"buffer":0,
			"byteLength":552,
			"byteOffset":4736,
			"target":34963
		},
		{
			"buffer":0,
			"byteLength":1992,
			"byteOffset":5288,
			"target":34962
		},
		{
			"buffer":0,
			"byteLength":1992,
			"byteOffset":7280,
			"target":34962
		},
		{
			"buffer":0,
			"byteLength":1328,
			"byteOffset":9272,
			"target":34962
		},
		{
			"buffer":0,
			"byteLength":648,
			"byteOffset":10600,
			"target":34963
		},
		{
			"buffer":0,
			"byteLength":384,
			"byteOffset":11248,
			"target":34962
		},
		{
			"buffer":0,
			"byteLength":384,
			"byteOffset":11632,
			"target":34962
		},
		{
			"buffer":0,
			"byteLength":256,
			"byteOffset":12016,
			"target":34962
		},
		{
			"buffer":0,
			"byteLength":96,
			"byteOffset":12272,
			"target":34963
		},
		{
			"buffer":0,
			"byteLength":2376,
			"byteOffset":12368,
			"target":34962
		},
		{
			"buffer":0,
			"byteLength":2376,
			"byteOffset":14744,
			"target":34962
		},
		{
			"buffer":0,
			"byteLength":1584,
			"byteOffset":17120,
			"target":34962
		},
		{
			"buffer":0,
			"byteLength":744,
			"byteOffset":18704,
			"target":34963
		},
		{
			"buffer":0,
			"byteLength":912,
			"byteOffset":19448,
			"target":34962
		},
		{
			"buffer":0,
			"byteLength":912,
			"byteOffset":20360,
			"target":34962
		},
		{
			"buffer":0,
			"byteLength":608,
			"byteOffset":21272,
			"target":34962
		},
		{
			"buffer":0,
			"byteLength":252,
			"byteOffset":21880,
			"target":34963
		},
		{
			"buffer":0,
			"byteLength":528,
			"byteOffset":22132,
			"target":34962
		},
		{
			"buffer":0,
			"byteLength":528,
			"byteOffset":22660,
			"target":34962
		},
		{
			"buffer":0,
			"byteLength":352,
			"byteOffset":23188,
			"target":34962
		},
		{
			"buffer":0,
			"byteLength":156,
			"byteOffset":23540,
			"target":34963
		},
		{
			"buffer":0,
			"byteLength":2376,
			"byteOffset":23696,
			"target":34962
		},
		{
			"buffer":0,
			"byteLength":2376,
			"byteOffset":26072,
			"target":34962
		},
		{
			"buffer":0,
			"byteLength":1584,
			"byteOffset":28448,
			"target":34962
		},
		{
			"buffer":0,
			"byteLength":744,
			"byteOffset":30032,
			"target":34963
		},
		{
			"buffer":0,
			"byteLength":1044,
			"byteOffset":30776,
			"target":34962
		},
		{
			"buffer":0,
			"byteLength":1044,
			"byteOffset":31820,
			"target":34962
		},
		{
			"buffer":0,
			"byteLength":696,
			"byteOffset":32864,
			"target":34962
		},
		{
			"buffer":0,
			"byteLength":276,
			"byteOffset":33560,
			"target":34963
		},
		{
			"buffer":0,
			"byteLength":2496,
			"byteOffset":33836,
			"target":34962
		},
		{
			"buffer":0,
			"byteLength":2496,
			"byteOffset":36332,
			"target":34962
		},
		{
			"buffer":0,
			"byteLength":1664,
			"byteOffset":38828,
			"target":34962
		},
		{
			"buffer":0,
			"byteLength":720,
			"byteOffset":40492,
			"target":34963
		}
	],
	"buffers":[
		{
			"byteLength":41212,
			"uri":"camera.bin"
		}
	]
}
